<?xml version="1.0" encoding="UTF-8" standalone="no" ?>
<!DOCTYPE svg PUBLIC "-//W3C//DTD SVG 1.1//EN" "http://www.w3.org/Graphics/SVG/1.1/DTD/svg11.dtd">
<svg xmlns="http://www.w3.org/2000/svg" xmlns:xlink="http://www.w3.org/1999/xlink" version="1.1" width="1280" height="1024" viewBox="0 0 1280 1024" xml:space="preserve">
<desc>Created with Fabric.js 5.3.0</desc>
<defs>
</defs>
<g transform="matrix(1 0 0 1 640 512)" id="background-logo"  >
<rect style="stroke: none; stroke-width: 0; stroke-dasharray: none; stroke-linecap: butt; stroke-dashoffset: 0; stroke-linejoin: miter; stroke-miterlimit: 4; fill: rgb(255,255,255); fill-opacity: 0; fill-rule: nonzero; opacity: 1;"  paint-order="stroke"  x="-640" y="-512" rx="0" ry="0" width="1280" height="1024" />
</g>
<g transform="matrix(1.9211538461538462 0 0 1.9211538461538462 640 395.6864080388972)" id="logo-logo"  >
<g style=""  paint-order="stroke"   >
		<g transform="matrix(0.917930923744532 0 0 0.9179309237445321 0 0)"  >
<g style=""  paint-order="stroke"   >
		<g transform="matrix(1 0 0 1 0 0)"  >
<linearGradient id="SVGID_53_8320" gradientUnits="userSpaceOnUse" gradientTransform="matrix(1 0 0 1 -100 -100)"  x1="0" y1="0" x2="0" y2="200">
<stop offset="0%" style="stop-color:rgb(113,23,234);stop-opacity: 1"/>
<stop offset="100%" style="stop-color:rgb(234,96,96);stop-opacity: 1"/>
</linearGradient>
<polygon style="stroke: none; stroke-width: 1; stroke-dasharray: none; stroke-linecap: butt; stroke-dashoffset: 0; stroke-linejoin: miter; stroke-miterlimit: 4; fill: url(#SVGID_53_8320); fill-rule: nonzero; opacity: 1;"  paint-order="stroke"  points="100,100 0,100 0,95.12 95.12,95.12 95.12,-95.12 -95.12,-95.12 -95.12,0 -100,0 -100,-100 100,-100 100,100 " />
</g>
</g>
</g>
</g>
</g>
<g transform="matrix(1.9211538461538462 0 0 1.9211538461538462 582.9571 670.9222834674964)" id="text-logo"  >
<g style=""  paint-order="stroke"   >
		<g transform="matrix(1 0 0 1 0 0)" id="text-logo-path-0"  >
<path style="stroke: rgb(255,255,255); stroke-width: 0; stroke-dasharray: none; stroke-linecap: butt; stroke-dashoffset: 0; stroke-linejoin: miter; stroke-miterlimit: 4; fill: rgb(49,192,223); fill-rule: nonzero; opacity: 1;"  paint-order="stroke"  transform=" translate(-50.31, 18.2)" d="M 2.08 -36.4 L 9.72 0 L 15.18 0 L 22.83 -36.4 L 19.19 -36.4 L 12.48 -4.32 L 5.72 -36.4 Z M 54.96 -36.4 L 46.64 -36.4 L 46.64 -33.28 L 48.98 -33.28 L 48.98 -3.12 L 46.64 -3.12 L 46.64 0 L 54.96 0 L 54.96 -3.12 L 52.62 -3.12 L 52.62 -33.28 L 54.96 -33.28 Z M 89.7 -36.4 L 81.9 -36.4 L 81.9 0 L 89.7 0 C 94.64 0 98.54 -1.46 98.54 -8.32 L 98.54 -28.08 C 98.54 -35.05 94.64 -36.4 89.7 -36.4 Z M 85.54 -33.28 L 89.7 -33.28 C 92.87 -33.28 94.9 -32.29 94.9 -27.56 L 94.9 -8.84 C 94.9 -4.11 92.87 -3.12 89.7 -3.12 L 85.54 -3.12 Z" stroke-linecap="round" />
</g>
</g>
</g>
<g transform="matrix(1.9211538461538462 0 0 1.9211538461538462 639.9221932692308 399.4872725040416)" id="tagline-3a78d944-c0db-44d4-8ad5-60158c925687-logo"  >
<g style=""  paint-order="stroke"   >
		<g transform="matrix(1 0 0 1 0 0)" id="tagline-3a78d944-c0db-44d4-8ad5-60158c925687-logo-path-0"  >
<linearGradient id="SVGID_8321" gradientUnits="userSpaceOnUse" gradientTransform="matrix(1 0 0 1 3.2399999999999984 -56.7)"  x1="-3.1995006179809593" y1="-14.510339999999985" x2="-3.1995006179809593" y2="77.48966000000001">
<stop offset="0%" style="stop-color:rgb(23,234,217);stop-opacity: 1"/>
<stop offset="100%" style="stop-color:rgb(96,120,234);stop-opacity: 1"/>
</linearGradient>
<path style="stroke: rgb(255,255,255); stroke-width: 0; stroke-dasharray: none; stroke-linecap: butt; stroke-dashoffset: 0; stroke-linejoin: miter; stroke-miterlimit: 4; fill: url(#SVGID_8321); fill-rule: nonzero; opacity: 1;"  paint-order="stroke"  transform=" translate(-19.4, 28.35)" d="M 3.24 -56.7 L 15.15 0 L 23.65 0 L 35.56 -56.7 L 29.89 -56.7 L 19.44 -6.72 L 8.91 -56.7 Z" stroke-linecap="round" />
</g>
</g>
</g>
<g transform="matrix(1.9211538461538462 0 0 1.9211538461538462 639.9020211538459 765.5002533112544)" id="tagline-ee21041c-fd7a-4646-a088-df0a2334375e-logo"  >
<g style=""  paint-order="stroke"   >
		<g transform="matrix(1 0 0 1 0 0)" id="tagline-ee21041c-fd7a-4646-a088-df0a2334375e-logo-path-0"  >
<path style="stroke: none; stroke-width: 0; stroke-dasharray: none; stroke-linecap: butt; stroke-dashoffset: 0; stroke-linejoin: miter; stroke-miterlimit: 4; fill: rgb(63,171,226); fill-rule: nonzero; opacity: 1;"  paint-order="stroke"  transform=" translate(-269.755, 5.95)" d="M 4.25 0.17 C 5.85 0.17 7.14 -0.27 7.14 -2.55 L 7.14 -2.89 C 7.14 -5.63 2.55 -7.38 2.55 -9.01 C 2.55 -10.56 3.21 -10.88 4.25 -10.88 C 5.29 -10.88 5.95 -10.56 5.95 -9.01 L 5.95 -8.33 L 7.14 -8.33 L 7.14 -9.35 C 7.14 -11.63 5.87 -12.07 4.25 -12.07 C 2.65 -12.07 1.36 -11.63 1.36 -9.35 L 1.36 -9.01 C 1.36 -6.56 5.95 -4.81 5.95 -2.89 C 5.95 -1.34 5.29 -1.02 4.25 -1.02 C 3.21 -1.02 2.55 -1.34 2.55 -2.89 L 2.55 -3.77 L 1.36 -3.77 L 1.36 -2.55 C 1.36 -0.31 2.64 0.17 4.25 0.17 Z M 22.13 0.17 C 23.39 0.17 24.34 -0.27 24.34 -2.55 L 24.34 -3.06 L 23.15 -3.06 L 23.15 -2.89 C 23.15 -1.34 23 -1.02 22.13 -1.02 C 21.44 -1.02 21.11 -1.34 21.11 -2.89 L 21.11 -7.48 L 23.49 -7.48 L 23.49 -8.5 L 21.11 -8.5 L 21.11 -11.05 L 19.92 -11.05 L 19.92 -2.55 C 19.92 -0.27 20.86 0.17 22.13 0.17 Z M 36.7 -8.5 L 36.7 0 L 37.89 0 L 37.89 -8.16 C 37.89 -9.71 38.22 -10.03 39.25 -10.03 C 40.29 -10.03 40.61 -9.71 40.61 -8.16 L 40.61 -7.99 L 41.8 -7.99 L 41.8 -8.5 C 41.8 -10.78 41.02 -11.22 39.42 -11.22 C 37.64 -11.22 36.7 -10.78 36.7 -8.5 Z M 58.16 -8.16 L 58.16 -6.46 L 54.76 -6.46 L 54.76 -8.16 C 54.76 -9.71 55.42 -10.03 56.46 -10.03 C 57.49 -10.03 58.16 -9.71 58.16 -8.16 Z M 59.35 -5.44 L 59.35 -8.5 C 59.35 -10.78 58.07 -11.22 56.46 -11.22 C 54.86 -11.22 53.57 -10.78 53.57 -8.5 L 53.57 -2.55 C 53.57 -0.27 54.86 0.17 56.46 0.17 C 58.07 0.17 59.35 -0.31 59.35 -2.55 L 59.35 -3.26 L 58.16 -3.26 L 58.16 -2.89 C 58.16 -1.34 57.49 -1.02 56.46 -1.02 C 55.42 -1.02 54.76 -1.34 54.76 -2.89 L 54.76 -5.44 Z M 75.02 0.17 C 75.55 0.17 76.38 -0.05 76.84 -0.99 L 77.23 0 L 77.91 0 L 77.91 -8.5 C 77.91 -10.78 76.62 -11.22 75.19 -11.22 C 73.58 -11.22 72.3 -10.78 72.3 -8.5 L 72.3 -7.82 L 73.49 -7.82 L 73.49 -8.16 C 73.49 -9.71 74.15 -10.03 75.19 -10.03 C 76.06 -10.03 76.72 -9.71 76.72 -8.16 L 76.72 -6.29 L 75.02 -6.29 C 73.41 -6.29 72.13 -5.81 72.13 -3.57 L 72.13 -2.55 C 72.13 -0.27 73.42 0.17 75.02 0.17 Z M 73.32 -2.89 L 73.32 -3.4 C 73.32 -4.95 73.98 -5.27 75.02 -5.27 L 76.72 -5.27 L 76.72 -2.89 C 76.72 -1.34 76.06 -1.02 75.02 -1.02 C 73.98 -1.02 73.32 -1.34 73.32 -2.89 Z M 91.12 0 L 92.31 0 L 92.31 -8.16 C 92.31 -9.71 92.97 -10.03 94.01 -10.03 C 95.05 -10.03 95.54 -9.71 95.54 -8.16 L 95.54 0 L 96.73 0 L 96.73 -8.16 C 96.73 -9.71 97.39 -10.03 98.43 -10.03 C 99.47 -10.03 99.96 -9.71 99.96 -8.16 L 99.96 0 L 101.15 0 L 101.15 -8.5 C 101.15 -10.78 100.2 -11.22 98.6 -11.22 C 98.04 -11.22 97.02 -10.97 96.54 -9.93 C 96.2 -10.97 95.37 -11.22 94.18 -11.22 C 93.64 -11.22 92.7 -11 92.19 -10.06 L 91.8 -11.05 L 91.12 -11.05 Z M 129.69 0.17 C 130.95 0.17 131.9 -0.27 131.9 -2.55 L 131.9 -3.06 L 130.71 -3.06 L 130.71 -2.89 C 130.71 -1.34 130.56 -1.02 129.69 -1.02 C 129 -1.02 128.67 -1.34 128.67 -2.89 L 128.67 -7.48 L 131.05 -7.48 L 131.05 -8.5 L 128.67 -8.5 L 128.67 -11.05 L 127.48 -11.05 L 127.48 -2.55 C 127.48 -0.27 128.42 0.17 129.69 0.17 Z M 144.26 -11.05 L 144.26 0 L 145.45 0 L 145.45 -5.27 L 148.85 -5.27 L 148.85 0 L 150.04 0 L 150.04 -11.05 L 148.85 -11.05 L 148.85 -6.29 L 145.45 -6.29 L 145.45 -11.05 Z M 167.76 -8.16 L 167.76 -6.46 L 164.36 -6.46 L 164.36 -8.16 C 164.36 -9.71 165.02 -10.03 166.06 -10.03 C 167.09 -10.03 167.76 -9.71 167.76 -8.16 Z M 168.95 -5.44 L 168.95 -8.5 C 168.95 -10.78 167.67 -11.22 166.06 -11.22 C 164.46 -11.22 163.17 -10.78 163.17 -8.5 L 163.17 -2.55 C 163.17 -0.27 164.46 0.17 166.06 0.17 C 167.67 0.17 168.95 -0.31 168.95 -2.55 L 168.95 -3.26 L 167.76 -3.26 L 167.76 -2.89 C 167.76 -1.34 167.09 -1.02 166.06 -1.02 C 165.02 -1.02 164.36 -1.34 164.36 -2.89 L 164.36 -5.44 Z M 195.45 -11.9 L 195.45 0 L 196.64 0 L 196.64 -5.44 L 199.53 -5.44 L 199.53 -6.46 L 196.64 -6.46 L 196.64 -10.88 L 200.38 -10.88 L 200.38 -11.9 Z M 212.57 -2.55 C 212.57 -0.27 213.86 0.17 215.46 0.17 C 215.99 0.17 216.84 -0.05 217.29 -0.94 L 217.67 0 L 218.35 0 L 218.35 -11.05 L 217.16 -11.05 L 217.16 -2.89 C 217.16 -1.34 216.5 -1.02 215.46 -1.02 C 214.42 -1.02 213.76 -1.34 213.76 -2.89 L 213.76 -11.05 L 212.57 -11.05 Z M 233.68 0.17 C 234.94 0.17 235.89 -0.27 235.89 -2.55 L 235.89 -3.06 L 234.7 -3.06 L 234.7 -2.89 C 234.7 -1.34 234.55 -1.02 233.68 -1.02 C 232.98 -1.02 232.66 -1.34 232.66 -2.89 L 232.66 -7.48 L 235.04 -7.48 L 235.04 -8.5 L 232.66 -8.5 L 232.66 -11.05 L 231.47 -11.05 L 231.47 -2.55 C 231.47 -0.27 232.41 0.17 233.68 0.17 Z M 248.08 -2.55 C 248.08 -0.27 249.37 0.17 250.97 0.17 C 251.5 0.17 252.35 -0.05 252.81 -0.94 L 253.18 0 L 253.86 0 L 253.86 -11.05 L 252.67 -11.05 L 252.67 -2.89 C 252.67 -1.34 252.01 -1.02 250.97 -1.02 C 249.93 -1.02 249.27 -1.34 249.27 -2.89 L 249.27 -11.05 L 248.08 -11.05 Z M 267.24 -8.5 L 267.24 0 L 268.43 0 L 268.43 -8.16 C 268.43 -9.71 268.75 -10.03 269.79 -10.03 C 270.83 -10.03 271.15 -9.71 271.15 -8.16 L 271.15 -7.99 L 272.34 -7.99 L 272.34 -8.5 C 272.34 -10.78 271.56 -11.22 269.96 -11.22 C 268.17 -11.22 267.24 -10.78 267.24 -8.5 Z M 288.69 -8.16 L 288.69 -6.46 L 285.29 -6.46 L 285.29 -8.16 C 285.29 -9.71 285.96 -10.03 286.99 -10.03 C 288.03 -10.03 288.69 -9.71 288.69 -8.16 Z M 289.88 -5.44 L 289.88 -8.5 C 289.88 -10.78 288.61 -11.22 286.99 -11.22 C 285.4 -11.22 284.1 -10.78 284.1 -8.5 L 284.1 -2.55 C 284.1 -0.27 285.4 0.17 286.99 0.17 C 288.61 0.17 289.88 -0.31 289.88 -2.55 L 289.88 -3.26 L 288.69 -3.26 L 288.69 -2.89 C 288.69 -1.34 288.03 -1.02 286.99 -1.02 C 285.96 -1.02 285.29 -1.34 285.29 -2.89 L 285.29 -5.44 Z M 316.13 -8.5 L 316.13 -2.55 C 316.13 -0.27 317.42 0.17 319.02 0.17 C 320.64 0.17 321.91 -0.31 321.91 -2.55 L 321.91 -8.5 C 321.91 -10.78 320.64 -11.22 319.02 -11.22 C 317.42 -11.22 316.13 -10.78 316.13 -8.5 Z M 317.32 -2.89 L 317.32 -8.16 C 317.32 -9.71 317.98 -10.03 319.02 -10.03 C 320.06 -10.03 320.72 -9.71 320.72 -8.16 L 320.72 -2.89 C 320.72 -1.34 320.06 -1.02 319.02 -1.02 C 317.98 -1.02 317.32 -1.34 317.32 -2.89 Z M 335.04 -11.05 L 335.04 0 L 336.23 0 L 336.23 -5.44 L 339.12 -5.44 L 339.12 -6.46 L 336.23 -6.46 L 336.23 -10.03 L 339.97 -10.03 L 339.97 -11.05 Z M 370.04 -9.01 L 370.04 -7.31 L 371.23 -7.31 L 371.23 -9.35 C 371.23 -11.63 369.95 -12.07 368.34 -12.07 C 366.74 -12.07 365.45 -11.63 365.45 -9.35 L 365.45 -2.55 C 365.45 -0.27 366.74 0.17 368.34 0.17 C 369.95 0.17 371.23 -0.31 371.23 -2.55 L 371.23 -3.26 L 370.04 -3.26 L 370.04 -2.89 C 370.04 -1.34 369.38 -1.02 368.34 -1.02 C 367.3 -1.02 366.64 -1.34 366.64 -2.89 L 366.64 -9.01 C 366.64 -10.56 367.3 -10.88 368.34 -10.88 C 369.38 -10.88 370.04 -10.56 370.04 -9.01 Z M 384.18 -8.5 L 384.18 0 L 385.37 0 L 385.37 -8.16 C 385.37 -9.71 385.7 -10.03 386.73 -10.03 C 387.77 -10.03 388.09 -9.71 388.09 -8.16 L 388.09 -7.99 L 389.28 -7.99 L 389.28 -8.5 C 389.28 -10.78 388.5 -11.22 386.9 -11.22 C 385.12 -11.22 384.18 -10.78 384.18 -8.5 Z M 405.64 -8.16 L 405.64 -6.46 L 402.24 -6.46 L 402.24 -8.16 C 402.24 -9.71 402.9 -10.03 403.94 -10.03 C 404.97 -10.03 405.64 -9.71 405.64 -8.16 Z M 406.83 -5.44 L 406.83 -8.5 C 406.83 -10.78 405.55 -11.22 403.94 -11.22 C 402.34 -11.22 401.05 -10.78 401.05 -8.5 L 401.05 -2.55 C 401.05 -0.27 402.34 0.17 403.94 0.17 C 405.55 0.17 406.83 -0.31 406.83 -2.55 L 406.83 -3.26 L 405.64 -3.26 L 405.64 -2.89 C 405.64 -1.34 404.97 -1.02 403.94 -1.02 C 402.9 -1.02 402.24 -1.34 402.24 -2.89 L 402.24 -5.44 Z M 422.5 0.17 C 423.03 0.17 423.86 -0.05 424.32 -0.99 L 424.71 0 L 425.39 0 L 425.39 -8.5 C 425.39 -10.78 424.1 -11.22 422.67 -11.22 C 421.06 -11.22 419.78 -10.78 419.78 -8.5 L 419.78 -7.82 L 420.97 -7.82 L 420.97 -8.16 C 420.97 -9.71 421.63 -10.03 422.67 -10.03 C 423.54 -10.03 424.2 -9.71 424.2 -8.16 L 424.2 -6.29 L 422.5 -6.29 C 420.89 -6.29 419.61 -5.81 419.61 -3.57 L 419.61 -2.55 C 419.61 -0.27 420.9 0.17 422.5 0.17 Z M 420.8 -2.89 L 420.8 -3.4 C 420.8 -4.95 421.46 -5.27 422.5 -5.27 L 424.2 -5.27 L 424.2 -2.89 C 424.2 -1.34 423.54 -1.02 422.5 -1.02 C 421.46 -1.02 420.8 -1.34 420.8 -2.89 Z M 440.55 0.17 C 441.81 0.17 442.76 -0.27 442.76 -2.55 L 442.76 -3.06 L 441.57 -3.06 L 441.57 -2.89 C 441.57 -1.34 441.42 -1.02 440.55 -1.02 C 439.86 -1.02 439.53 -1.34 439.53 -2.89 L 439.53 -7.48 L 441.91 -7.48 L 441.91 -8.5 L 439.53 -8.5 L 439.53 -11.05 L 438.34 -11.05 L 438.34 -2.55 C 438.34 -0.27 439.28 0.17 440.55 0.17 Z M 455.12 -11.05 L 455.12 0 L 456.31 0 L 456.31 -11.05 Z M 468.67 -11.05 L 471.17 0 L 472.96 0 L 475.46 -11.05 L 474.27 -11.05 L 472.07 -1.31 L 469.86 -11.05 Z M 487.81 -11.05 L 487.81 0 L 489 0 L 489 -11.05 Z M 504.34 0.17 C 505.6 0.17 506.55 -0.27 506.55 -2.55 L 506.55 -3.06 L 505.36 -3.06 L 505.36 -2.89 C 505.36 -1.34 505.21 -1.02 504.34 -1.02 C 503.64 -1.02 503.32 -1.34 503.32 -2.89 L 503.32 -7.48 L 505.7 -7.48 L 505.7 -8.5 L 503.32 -8.5 L 503.32 -11.05 L 502.13 -11.05 L 502.13 -2.55 C 502.13 -0.27 503.06 0.17 504.34 0.17 Z M 519.5 -7.92 L 519.5 -11.05 L 518.31 -11.05 L 518.31 -7.58 C 518.31 -5.59 519.28 -5 520.61 -4.88 L 520.61 0 L 521.8 0 L 521.8 -4.88 C 523.11 -5 524.09 -5.59 524.09 -7.58 L 524.09 -11.05 L 522.9 -11.05 L 522.9 -7.92 C 522.9 -6.38 522.24 -6.05 521.2 -6.05 C 520.17 -6.05 519.5 -6.38 519.5 -7.92 Z M 536.62 -1.7 L 536.62 0 L 538.15 0 L 538.15 -1.7 Z" stroke-linecap="round" />
</g>
</g>
</g>
<g transform="matrix(1.9211538461538462 0 0 1.9211538461538462 791.0488011872366 670.8607183497161)" id="tagline-52089d43-6732-42b0-9da9-3ee73f325070-logo"  >
<g style=""  paint-order="stroke"   >
		<g transform="matrix(1 0 0 1 0 0)" id="tagline-52089d43-6732-42b0-9da9-3ee73f325070-logo-path-0"  >
<linearGradient id="SVGID_8322" gradientUnits="userSpaceOnUse" gradientTransform="matrix(1 0 0 1 123.07 -35.64)"  x1="-123.05249814605716" y1="-11.833560000000034" x2="-123.05249814605716" y2="49.166439999999966">
<stop offset="0%" style="stop-color:rgb(98,39,116);stop-opacity: 1"/>
<stop offset="100%" style="stop-color:rgb(197,51,100);stop-opacity: 1"/>
</linearGradient>
<path style="stroke: rgb(255,255,255); stroke-width: 0; stroke-dasharray: none; stroke-linecap: butt; stroke-dashoffset: 0; stroke-linejoin: miter; stroke-miterlimit: 4; fill: url(#SVGID_8322); fill-rule: nonzero; opacity: 1;"  paint-order="stroke"  transform=" translate(-155.415, 17.55)" d="M 132.25 0.54 C 137.38 0.54 141.43 -0.97 141.43 -8.1 L 141.43 -11.34 C 141.43 -15.5 140.08 -17.33 137.92 -18.2 C 139.75 -19.17 140.89 -21.06 140.89 -24.84 L 140.89 -27 C 140.89 -34.24 137.38 -35.64 132.25 -35.64 C 127.12 -35.64 123.07 -34.24 123.07 -27 L 123.07 -25.65 L 126.85 -25.65 L 126.85 -26.46 C 126.85 -31.37 128.95 -32.4 132.25 -32.4 C 135.54 -32.4 137.11 -31.37 137.11 -26.46 L 137.11 -25.38 C 137.11 -20.47 135 -19.44 131.71 -19.44 L 127.93 -19.44 L 127.93 -16.74 L 132.25 -16.74 C 135.54 -16.74 137.65 -15.71 137.65 -10.26 L 137.65 -8.64 C 137.65 -3.73 135.54 -2.7 132.25 -2.7 C 128.95 -2.7 126.85 -3.73 126.85 -8.64 L 126.85 -11.07 L 123.07 -11.07 L 123.07 -8.1 C 123.07 -0.97 127.12 0.54 132.25 0.54 Z M 169.4 -27 L 169.4 -8.1 C 169.4 -0.86 173.5 0.54 178.58 0.54 C 183.71 0.54 187.76 -0.97 187.76 -8.1 L 187.76 -27 C 187.76 -34.24 183.71 -35.64 178.58 -35.64 C 173.5 -35.64 169.4 -34.24 169.4 -27 Z M 173.18 -9.18 L 173.18 -25.92 C 173.18 -30.83 175.28 -31.86 178.58 -31.86 C 181.87 -31.86 183.98 -30.83 183.98 -25.92 L 183.98 -9.18 C 183.98 -4.27 181.87 -3.24 178.58 -3.24 C 175.28 -3.24 173.18 -4.27 173.18 -9.18 Z" stroke-linecap="round" />
</g>
</g>
</g>
</svg>